# Blender 4.4.3
# www.blender.org
o Cube
v 1.000000 1.000000 -1.000000
v 1.000000 -1.000000 -1.000000
v 1.000000 1.000000 1.000000
v 1.000000 -1.000000 1.000000
v -1.000000 1.000000 -1.000000
v -1.000000 -1.000000 -1.000000
v -1.000000 1.000000 1.000000
v -1.000000 -1.000000 1.000000
v 1.000000 0.000000 -1.000000
v -1.000000 0.000000 1.000000
v 0.000000 1.000000 1.000000
v 1.000000 1.000000 0.000000
v -1.000000 1.000000 0.000000
v 0.000000 1.000000 -1.000000
v 0.000000 1.000000 0.000000
v 2.783409 1.000000 -1.000000
v 2.783409 0.000000 -1.000000
v 2.783409 1.000000 0.000000
v -1.000000 0.000000 3.460692
v -1.000000 1.000000 3.460692
v 0.000000 1.000000 3.460692
v -1.000000 2.910165 0.000000
v -1.000000 2.910165 -1.000000
v 0.000000 2.910165 -1.000000
v 0.000000 2.910165 0.000000
v 1.711235 1.000000 -1.000000
v 1.711235 1.000000 0.000000
v 1.711235 2.910165 -1.000000
v 1.711235 2.910165 0.000000
v 1.711235 1.000000 -1.000000
v 1.711235 1.000000 0.000000
v 1.711235 2.910165 -1.000000
v 1.711235 2.910165 0.000000
v 0.000000 2.910165 2.773894
v 0.000000 1.000000 2.773894
v 1.711235 2.910165 2.773894
v 1.711235 1.000000 2.773894
v 1.711235 2.910165 0.000000
v 0.000000 2.910165 0.000000
v 1.711235 2.910165 2.773894
v 0.000000 2.910165 2.773894
v 1.711235 3.351033 0.000000
v 0.000000 3.351033 0.000000
v 1.711235 3.351033 2.773894
v 0.000000 3.351033 2.773894
v 1.000000 1.000000 5.939311
v 1.000000 -1.000000 5.939311
v -1.000000 -1.000000 5.939311
v -1.000000 0.000000 5.939311
v 0.000000 1.000000 5.939311
v 2.734929 0.000000 -1.000000
v 2.734929 -1.000000 -1.000000
v 2.734929 1.000000 1.000000
v 2.734929 -1.000000 1.000000
v 2.734929 1.000000 0.000000
v 1.453331 0.477407 1.930116
v 1.453331 -0.477407 1.930116
v 2.281598 0.477407 1.930116
v 2.281598 -0.477407 1.930116
v 1.000000 1.000000 -2.409955
v 1.000000 0.000000 -2.409955
v 2.783409 1.000000 -2.409955
v 2.783409 0.000000 -2.409955
v 1.257904 0.855387 -2.409955
v 1.257904 0.144613 -2.409955
v 2.525505 0.855387 -2.409955
v 2.525505 0.144613 -2.409955
v 1.257904 0.855387 -2.675457
v 1.257904 0.144613 -2.675457
v 2.525505 0.855387 -2.675457
v 2.525505 0.144613 -2.675457
v -2.203043 0.000000 1.000000
v -2.203043 1.000000 1.000000
v -2.203043 0.000000 3.460692
v -2.203043 1.000000 3.460692
vn -0.0000 1.0000 -0.0000
vn 0.7071 -0.7071 -0.0000
vn -1.0000 -0.0000 -0.0000
vn -0.0000 -1.0000 -0.0000
vn -0.0000 -0.7071 0.7071
vn -0.0000 -0.0000 -1.0000
vn -0.0000 0.7071 -0.7071
vn -0.7071 0.7071 -0.0000
vn 1.0000 -0.0000 -0.0000
vn -0.0000 -0.0000 1.0000
vn 0.8989 -0.0000 0.4381
vn -0.0000 0.8718 0.4898
vn -0.8989 -0.0000 0.4381
vn -0.0000 -0.8718 0.4898
vt 0.875000 0.625000
vt 0.750000 0.750000
vt 0.750000 0.625000
vt 0.625000 0.875000
vt 0.500000 1.000000
vt 0.500000 0.000000
vt 0.625000 0.000000
vt 0.625000 0.125000
vt 0.375000 0.500000
vt 0.125000 0.750000
vt 0.125000 0.500000
vt 0.500000 0.500000
vt 0.625000 0.625000
vt 0.625000 0.375000
vt 0.625000 0.500000
vt 0.625000 0.250000
vt 0.375000 0.250000
vt 0.625000 0.750000
vt 0.750000 0.500000
vt 0.625000 1.000000
vt 0.875000 0.750000
vt 0.875000 0.500000
vt 0.375000 1.000000
vt 0.375000 0.750000
vt 0.375000 0.000000
s 0
f 13/1/1 11/2/1 15/3/1
f 11/4/2 19/5/2 10/5/2
f 10/6/3 7/7/3 13/8/3
f 2/9/4 8/10/4 6/11/4
f 9/12/5 18/13/5 12/13/5
f 9/12/6 14/14/6 1/15/6
f 5/16/6 9/12/6 2/9/6
f 12/13/7 51/12/7 9/12/7
f 10/6/3 5/16/3 6/17/3
f 10/5/8 50/4/8 11/4/8
f 15/3/1 3/18/1 12/13/1
f 14/19/1 12/13/1 1/15/1
f 14/19/4 27/3/4 15/3/4
f 17/12/9 16/15/9 18/13/9
f 12/13/1 16/15/1 1/15/1
f 16/15/1 60/15/1 1/15/1
f 19/5/10 21/4/10 20/20/10
f 7/21/1 21/2/1 11/2/1
f 10/6/6 73/7/6 7/7/6
f 23/22/1 25/3/1 24/19/1
f 5/16/6 24/14/6 14/14/6
f 13/8/3 23/16/3 5/16/3
f 15/3/10 22/1/10 13/1/10
f 26/14/1 32/14/1 30/14/1
f 15/3/3 34/3/3 25/3/3
f 24/14/6 26/14/6 14/14/6
f 25/3/1 28/19/1 24/19/1
f 30/19/9 33/3/9 31/3/9
f 27/3/1 30/19/1 31/3/1
f 29/3/1 31/3/1 33/3/1
f 28/19/1 33/3/1 32/19/1
f 35/3/10 36/3/10 34/3/10
f 25/3/1 41/3/1 39/3/1
f 27/3/4 35/3/4 15/3/4
f 29/3/9 37/3/9 27/3/9
f 41/3/3 43/3/3 39/3/3
f 34/3/1 40/3/1 41/3/1
f 29/3/1 39/3/1 38/3/1
f 36/3/1 38/3/1 40/3/1
f 43/3/1 44/3/1 42/3/1
f 39/3/6 42/3/6 38/3/6
f 38/3/9 44/3/9 40/3/9
f 40/3/10 45/3/10 41/3/10
f 46/18/10 49/5/10 48/23/10
f 4/24/4 48/10/4 8/10/4
f 3/18/9 47/24/9 4/24/9
f 8/25/3 49/6/3 10/6/3
f 11/2/1 46/18/1 3/18/1
f 51/12/9 53/18/9 54/24/9
f 53/18/11 59/24/11 54/24/11
f 9/12/6 52/9/6 2/9/6
f 2/9/4 54/24/4 4/24/4
f 3/18/1 55/13/1 12/13/1
f 57/24/10 58/18/10 56/18/10
f 53/18/12 56/18/12 58/18/12
f 4/24/13 56/18/13 3/18/13
f 54/24/14 57/24/14 4/24/14
f 62/15/6 64/15/6 60/15/6
f 9/12/4 63/12/4 17/12/4
f 1/15/3 61/12/3 9/12/3
f 17/12/9 62/15/9 16/15/9
f 65/12/4 71/12/4 67/12/4
f 63/12/6 66/15/6 62/15/6
f 63/12/6 65/12/6 67/12/6
f 60/15/6 65/12/6 61/12/6
f 68/15/6 71/12/6 69/12/6
f 64/15/3 69/12/3 65/12/3
f 66/15/1 68/15/1 64/15/1
f 67/12/9 70/15/9 66/15/9
f 72/6/3 75/7/3 73/7/3
f 19/5/4 72/5/4 10/5/4
f 20/20/10 74/5/10 19/5/10
f 7/21/1 75/21/1 20/21/1
f 13/1/1 7/21/1 11/2/1
f 11/4/2 21/4/2 19/5/2
f 2/9/4 4/24/4 8/10/4
f 9/12/5 17/12/5 18/13/5
f 2/9/6 6/17/6 5/16/6
f 5/16/6 14/14/6 9/12/6
f 12/13/7 55/13/7 51/12/7
f 6/17/3 8/25/3 10/6/3
f 10/6/3 13/8/3 5/16/3
f 10/5/8 49/5/8 50/4/8
f 15/3/1 11/2/1 3/18/1
f 14/19/1 15/3/1 12/13/1
f 14/19/4 26/19/4 27/3/4
f 12/13/1 18/13/1 16/15/1
f 16/15/1 62/15/1 60/15/1
f 7/21/1 20/21/1 21/2/1
f 10/6/6 72/6/6 73/7/6
f 23/22/1 22/1/1 25/3/1
f 5/16/6 23/16/6 24/14/6
f 13/8/3 22/8/3 23/16/3
f 15/3/10 25/3/10 22/1/10
f 26/14/1 28/14/1 32/14/1
f 15/3/3 35/3/3 34/3/3
f 24/14/6 28/14/6 26/14/6
f 25/3/1 29/3/1 28/19/1
f 30/19/9 32/19/9 33/3/9
f 27/3/1 26/19/1 30/19/1
f 29/3/1 27/3/1 31/3/1
f 28/19/1 29/3/1 33/3/1
f 35/3/10 37/3/10 36/3/10
f 25/3/1 34/3/1 41/3/1
f 27/3/4 37/3/4 35/3/4
f 29/3/9 36/3/9 37/3/9
f 41/3/3 45/3/3 43/3/3
f 34/3/1 36/3/1 40/3/1
f 29/3/1 25/3/1 39/3/1
f 36/3/1 29/3/1 38/3/1
f 43/3/1 45/3/1 44/3/1
f 39/3/6 43/3/6 42/3/6
f 38/3/9 42/3/9 44/3/9
f 40/3/10 44/3/10 45/3/10
f 48/23/10 47/24/10 46/18/10
f 46/18/10 50/4/10 49/5/10
f 4/24/4 47/24/4 48/10/4
f 3/18/9 46/18/9 47/24/9
f 8/25/3 48/25/3 49/6/3
f 11/2/1 50/2/1 46/18/1
f 54/24/9 52/9/9 51/12/9
f 51/12/9 55/13/9 53/18/9
f 53/18/11 58/18/11 59/24/11
f 9/12/6 51/12/6 52/9/6
f 2/9/4 52/9/4 54/24/4
f 3/18/1 53/18/1 55/13/1
f 57/24/10 59/24/10 58/18/10
f 53/18/12 3/18/12 56/18/12
f 4/24/13 57/24/13 56/18/13
f 54/24/14 59/24/14 57/24/14
f 62/15/6 66/15/6 64/15/6
f 9/12/4 61/12/4 63/12/4
f 1/15/3 60/15/3 61/12/3
f 17/12/9 63/12/9 62/15/9
f 65/12/4 69/12/4 71/12/4
f 63/12/6 67/12/6 66/15/6
f 63/12/6 61/12/6 65/12/6
f 60/15/6 64/15/6 65/12/6
f 68/15/6 70/15/6 71/12/6
f 64/15/3 68/15/3 69/12/3
f 66/15/1 70/15/1 68/15/1
f 67/12/9 71/12/9 70/15/9
f 72/6/3 74/6/3 75/7/3
f 19/5/4 74/5/4 72/5/4
f 20/20/10 75/20/10 74/5/10
f 7/21/1 73/21/1 75/21/1
